# xmcd
#
# Track frame offsets:
#	150
#	16892
#	30481
#	45296
#	58172
#	72427
#	88576
#	100310
#	116941
#	131494
#	142676
#	157668
#	172644
#	193890
#	208530
#
# Disc length: 2980 seconds
#
# Revision: 0
# Processed by: cddbd v1.5.2PL0 Copyright (c) Steve Scherf et al.
# Submitted via: EasyCDDAExtractor 16.0.6.1
#
DISCID=be0ba20f
DTITLE=Άγνωστος - Τα τραγούδια του Μωριά
DYEAR=2003
DGENRE=Παραδοσιακή
TTITLE0=Πήραμε την Τριπολιτσά
TTITLE1=Σαράντα παλληκάρια
TTITLE2=Μαντήλι καλαματιανό
TTITLE3=Χωριατοπούλα του Μωριά
TTITLE4=Στης Αρκαδίας τον πλάτανο
TTITLE5=Κολοκοτρωναίοι
TTITLE6=Ας πάν' να δουν τα μάτια μου
TTITLE7=Στου παπα Λάμπρου την αυλή
TTITLE8=Νά 'ταν τα νειάτα δυό φορές
TTITLE9=Μού παρήγγειλε τ' αηδόνι
TTITLE10=Ένας αητός
TTITLE11=Όλα τα πουλάκια
TTITLE12=Ιτιά ιτιά
TTITLE13=Γιε μ' ένας αητός
TTITLE14=Ο πλάτανος
EXTD=
EXTT0=
EXTT1=
EXTT2=
EXTT3=
EXTT4=
EXTT5=
EXTT6=
EXTT7=
EXTT8=
EXTT9=
EXTT10=
EXTT11=
EXTT12=
EXTT13=
EXTT14=
PLAYORDER=
